<?xml version="1.0" encoding="utf-8"?>
<!-- Generator: Adobe Illustrator 26.5.0, SVG Export Plug-In . SVG Version: 6.00 Build 0)  -->
<svg version="1.1" id="Livello_1" xmlns="http://www.w3.org/2000/svg" xmlns:xlink="http://www.w3.org/1999/xlink" x="0px" y="0px"
	 viewBox="0 0 238.32 51.48" style="enable-background:new 0 0 238.32 51.48;" xml:space="preserve">
<g>
	<path d="M39.24,28.3l-0.43,0.5c2.09,1.66,3.46,4.32,3.46,8.35c0,7.99-7.27,13.68-15.55,13.68c-13.39,0-20.74-11.81-20.74-28.37
		c0-13.54,7.34-21.39,17.57-21.39c7.78,0,13.54,5.33,17.64,11.81V2.88c-3.96-1.44-9.72-2.81-16.2-2.81C9.94,0.07,0,10.44,0,25.78
		c0,16.63,10.8,25.71,26.71,25.71c8.57,0,16.27-5.9,16.27-14.33C42.99,32.91,41.48,30.03,39.24,28.3z"/>
	<path d="M84.6,44.43L66.67,0h-9.65c2.16,0.58,4.68,3.38,5.69,6.19L49.9,38.59c0,0-0.43,1.3-0.43,2.81c0.07,3.53,2.09,6.7,5.4,7.99
		c1.01,0.43,2.09,0.58,3.17,0.58c3.38,0,6.7-2.02,7.99-5.4l6.05-15.34l6.62,16.49l0.07,0.58c0,1.8-1.58,3.17-3.31,3.74H91.3
		C88.85,49.4,85.97,47.67,84.6,44.43z M65.38,44.36c-1.3,3.1-4.25,4.97-7.34,4.97c-0.94,0-1.94-0.22-2.88-0.58
		c-3.1-1.22-4.97-4.68-4.97-7.27c0-1.01,0.22-2.02,0.65-3.24L63.15,7.13l8.28,20.59H57.31v0.72h14.33L65.38,44.36z"/>
	<path d="M129.53,45.72V35.07c0-6.91-4.54-12.17-13.54-12.17c-0.43,0-0.79,0-1.22,0.07c6.84-3.6,14.33-5.9,14.33-13.18
		c0-7.71-5.98-9.79-16.85-9.79H93.17c2.16,0.58,4.46,2.16,4.97,4.25v41.48c-0.5,2.09-2.81,3.67-4.97,4.32h15.7
		c-2.16-0.65-4.39-2.23-4.97-4.32v-7.49c0-8.14,6.77-14.62,12.1-14.62c5.26,0,7.63,4.46,7.63,9.72v12.38
		c-0.5,2.09-2.81,3.67-4.97,4.32h15.84C132.34,49.4,130.03,47.81,129.53,45.72z M103.9,33.27V0.72h8.35
		c6.12,0,11.02,0.86,11.02,8.14C123.27,21.46,107.57,21.53,103.9,33.27z"/>
	<path d="M178.27,44.43L160.35,0h-9.65c2.16,0.58,4.68,3.38,5.69,6.19l-12.82,32.4c0,0-0.43,1.3-0.43,2.81
		c0.07,3.53,2.09,6.7,5.4,7.99c1.01,0.43,2.09,0.58,3.17,0.58c3.38,0,6.7-2.02,7.99-5.4l6.05-15.34l6.62,16.49l0.07,0.58
		c0,1.8-1.58,3.17-3.31,3.74h15.84C182.52,49.4,179.64,47.67,178.27,44.43z M159.05,44.36c-1.3,3.1-4.25,4.97-7.34,4.97
		c-0.94,0-1.95-0.22-2.88-0.58c-3.1-1.22-4.97-4.68-4.97-7.27c0-1.01,0.22-2.02,0.65-3.24l12.31-31.11l8.28,20.59h-14.11v0.72h14.33
		L159.05,44.36z"/>
	<path d="M203.04,0.94c6.12,0,11.02,3.6,15.27,7.85l-1.44-8.57h-38.6l-1.44,8.57c4.25-4.25,9.15-7.85,15.26-7.85h2.59l-0.07,44.86
		c-0.58,2.09-2.81,3.67-4.97,4.25h15.7c-2.16-0.58-4.46-2.16-4.97-4.25l0.07-44.86H203.04z"/>
	<path d="M233.35,45.72V4.25c0.58-2.09,2.81-3.67,4.97-4.25h-15.7c2.16,0.58,4.46,2.16,4.97,4.25v41.48
		c-0.5,2.09-2.81,3.67-4.97,4.32h15.7C236.16,49.4,233.93,47.81,233.35,45.72z"/>
</g>
</svg>
